PathFileType	4	(X/Y/Z)	/Users/itak/Documents/Research/Walk-IL/dataset/trc/00563_00009.trc
DataRate	CameraRate	NumFrames	NumMarkers	Units	OrigDataRate	OrigDataStartFrame	OrigNumFrames
100.000000	100.000000	4	53	mm	100.000000	314	419
Frame#	Time	RPSI			LPSI			L3			STRN			T10			C7			CLAV			RBAK			LBAK			LSHO			LUPA			LAEL			LAOL			LWTS			LWPS			LFRA			LHPS			LHTS			RSHO			RUPA			RAEL			RAOL			RWTS			RWPS			RFRA			RIFD			RHTS			RHPS			RBHD			LFHD			RFHD			LBHD			LHIP			RHIP			RASI			LASI			LKNE			LTHI			LANK			LTIP			LTOE			LMT1			LMT5			LHEE			RKNE			RTHI			RANK			RTIP			RTOE			RMT1			RMT5			RHEE			LIFD			
		X1	Y1	Z1	X2	Y2	Z2	X3	Y3	Z3	X4	Y4	Z4	X5	Y5	Z5	X6	Y6	Z6	X7	Y7	Z7	X8	Y8	Z8	X9	Y9	Z9	X10	Y10	Z10	X11	Y11	Z11	X12	Y12	Z12	X13	Y13	Z13	X14	Y14	Z14	X15	Y15	Z15	X16	Y16	Z16	X17	Y17	Z17	X18	Y18	Z18	X19	Y19	Z19	X20	Y20	Z20	X21	Y21	Z21	X22	Y22	Z22	X23	Y23	Z23	X24	Y24	Z24	X25	Y25	Z25	X26	Y26	Z26	X27	Y27	Z27	X28	Y28	Z28	X29	Y29	Z29	X30	Y30	Z30	X31	Y31	Z31	X32	Y32	Z32	X33	Y33	Z33	X34	Y34	Z34	X35	Y35	Z35	X36	Y36	Z36	X37	Y37	Z37	X38	Y38	Z38	X39	Y39	Z39	X40	Y40	Z40	X41	Y41	Z41	X42	Y42	Z42	X43	Y43	Z43	X44	Y44	Z44	X45	Y45	Z45	X46	Y46	Z46	X47	Y47	Z47	X48	Y48	Z48	X49	Y49	Z49	X50	Y50	Z50	X51	Y51	Z51	X52	Y52	Z52	X53	Y53	Z53	

315	3.14	1273.917236328125	1008.894592285156	528.0409545898438	1320.195068359375	1013.402587890625	402.9331359863281	1300.832885742188	1106.767700195312	462.3865356445312	1517.234008789062	1307.063110351562	517.438232421875	1285.549072265625	1232.210571289062	455.3687438964844	1320.277709960938	1508.579833984375	470.828369140625	1494.024169921875	1417.140747070312	508.9450073242188	1233.254638671875	1383.2724609375	539.7369384765625	1309.052490234375	1452.527709960938	375.3872985839844	1422.653564453125	1484.309326171875	324.4460754394531	1450.8662109375	1370.254638671875	237.4757843017578	1534.451538085938	1180.544555664062	198.3305206298828	1448.806518554688	1125.79833984375	210.5346069335938	1716.297607421875	1066.069213867188	333.4450378417969	1736.961669921875	1023.562866210938	260.0108642578125	1601.13037109375	1131.826293945312	216.9192657470703	1782.816528320312	994.4995727539062	285.2601013183594	1788.871337890625	1035.5478515625	339.3960876464844	1339.261962890625	1481.875244140625	634.586669921875	1304.01318359375	1422.144409179688	696.29736328125	1272.494262695312	1146.168212890625	771.1317138671875	1223.826538085938	1125.971313476562	731.5806274414062	1402.467651367188	921.4902954101562	796.6242065429688	1340.737426757812	912.3599853515625	850.042236328125	1277.444091796875	1092.544555664062	788.128662109375	1396.67724609375	751.402587890625	824.4851684570312	1419.495971679688	832.196044921875	830.8262329101562	1353.544311523438	839.6904907226562	864.8535766601562	1415.643798828125	1696.230224609375	563.781494140625	1590.113403320312	1690.914306640625	450.6159362792969	1553.037109375	1689.603271484375	591.0186157226562	1464.125610351562	1694.396240234375	406.1352233886719	1488.308349609375	945.975830078125	323.2030944824219	1354.64990234375	945.055419921875	685.41748046875	1452.804077148438	984.2659912109375	656.657470703125	1543.803466796875	977.3796997070312	395.9799194335938	1550.934204101562	508.3937683105469	412.7850036621094	1539.247436523438	673.7269897460938	370.5387573242188	1430.919921875	40.16772079467773	389.7156066894531	1477.861083984375	260.1817626953125	389.7022705078125	1617.68310546875	38.96756362915039	513.0617065429688	1534.291381835938	47.22861480712891	522.4618530273438	1549.234252929688	36.45869064331055	416.0173950195312	1349.75341796875	41.20512390136719	417.4389953613281	1444.390258789062	504.6634216308594	661.4685668945312	1408.201416015625	795.3591918945312	697.528076171875	1321.52490234375	40.09045791625977	604.9803466796875	1439.6904296875	358.3688659667969	647.3092041015625	1546.964721679688	40.85195541381836	640.762451171875	1499.191162109375	43.45944595336914	580.7926635742188	1440.92333984375	41.40003967285156	669.2694702148438	1290.381958007812	27.05983924865723	535.239501953125	1831.455810546875	958.4940795898438	376.1221618652344	
316	3.15	1276.486083984375	1009.893798828125	528.5518798828125	1323.289184570312	1014.455200195312	403.6904907226562	1303.776977539062	1107.505859375	463.3082580566406	1520.020874023438	1307.525512695312	518.6715087890625	1288.250122070312	1232.895751953125	456.5347900390625	1323.1328125	1509.23876953125	472.1747436523438	1496.919067382812	1417.638793945312	510.1172485351562	1236.19873046875	1383.9912109375	541.2070922851562	1311.904907226562	1453.142700195312	376.9753112792969	1425.322387695312	1484.801147460938	325.5917663574219	1452.114990234375	1370.286254882812	238.6791229248047	1532.410034179688	1178.982177734375	198.7187805175781	1445.796508789062	1125.938842773438	212.1489410400391	1713.451416015625	1059.988891601562	331.5071105957031	1732.196166992188	1017.488830566406	257.5364379882812	1598.300170898438	1128.772338867188	216.4886779785156	1777.531860351562	987.0272216796875	282.0214538574219	1785.360961914062	1027.423950195312	336.37060546875	1342.256713867188	1482.5322265625	635.869873046875	1307.075317382812	1422.832153320312	697.6763916015625	1275.950927734375	1146.903564453125	772.63232421875	1227.513427734375	1126.352172851562	732.8905639648438	1407.162963867188	923.0993041992188	799.337646484375	1345.148315429688	913.7627563476562	852.4144897460938	1281.113891601562	1093.343872070312	789.7766723632812	1402.083618164062	753.0361328125	827.6885375976562	1424.546508789062	834.0154418945312	834.0707397460938	1358.280395507812	841.27783203125	867.5894775390625	1418.131469726562	1696.763305664062	565.246337890625	1592.593627929688	1691.791381835938	452.056640625	1555.540893554688	1690.3232421875	592.4292602539062	1466.598022460938	1695.126342773438	407.583984375	1491.597534179688	946.6790161132812	324.5530700683594	1356.428466796875	945.5565795898438	686.218017578125	1454.834838867188	984.5147705078125	657.8990478515625	1546.834106445312	977.8602294921875	397.6444396972656	1551.930053710938	508.69775390625	413.7347106933594	1541.376831054688	674.11181640625	371.8132934570312	1431.4033203125	40.43191909790039	389.1050109863281	1478.539672851562	260.5992736816406	389.7926940917969	1617.471557617188	39.03576278686523	513.1657104492188	1534.240478515625	47.30778121948242	522.2679443359375	1549.49072265625	36.41976547241211	415.9151611328125	1350.096801757812	41.67837142944336	416.3633117675781	1443.920532226562	504.6859130859375	661.7352294921875	1409.1650390625	795.6260986328125	698.35888671875	1321.5205078125	40.0875358581543	605.0985107421875	1439.2177734375	358.5182800292969	647.4765014648438	1546.950927734375	40.82613754272461	640.7705688476562	1499.115966796875	43.50775146484375	580.8848266601562	1440.88623046875	41.36671447753906	669.3693237304688	1290.322998046875	27.10223007202148	535.3602905273438	1826.319946289062	948.9393920898438	371.84912109375	
317	3.16	1278.941162109375	1010.789367675781	529.0150756835938	1326.295288085938	1015.407836914062	404.3969116210938	1306.638427734375	1108.153930664062	464.1556396484375	1522.749755859375	1307.874267578125	519.9130249023438	1290.87744140625	1233.494140625	457.6282348632812	1325.974731445312	1509.837280273438	473.4514465332031	1499.7744140625	1418.021728515625	511.3028259277344	1239.09228515625	1384.616455078125	542.5892944335938	1314.77783203125	1453.67236328125	378.5173645019531	1428.046020507812	1485.192626953125	326.7313232421875	1453.40673828125	1370.235107421875	239.901611328125	1530.291381835938	1177.371337890625	199.0768890380859	1442.69287109375	1126.123046875	213.6512756347656	1710.14208984375	1053.415161132812	329.5420227050781	1727.004760742188	1011.121887207031	254.9738006591797	1595.286010742188	1125.582885742188	216.0196838378906	1771.671875	979.1181030273438	278.6710815429688	1781.230712890625	1018.658081054688	333.3433532714844	1345.1513671875	1483.094482421875	637.100341796875	1309.96728515625	1423.461059570312	698.98779296875	1279.104370117188	1147.610961914062	774.1611938476562	1230.881713867188	1126.72607421875	734.3046875	1411.860595703125	924.9176635742188	801.8583984375	1349.644165039062	915.1865844726562	854.6427612304688	1284.541259765625	1094.117431640625	791.4365844726562	1408.062866210938	754.9069213867188	830.5696411132812	1429.896362304688	836.1218872070312	837.0567016601562	1363.311157226562	842.9042358398438	870.0983276367188	1420.563842773438	1697.208984375	566.6787109375	1595.058837890625	1692.586303710938	453.5264282226562	1557.98681640625	1690.984008789062	593.8619384765625	1469.057861328125	1695.754272460938	409.0201110839844	1494.786376953125	947.275634765625	325.8405151367188	1358.133056640625	945.975830078125	686.9498291015625	1456.771728515625	984.6757202148438	659.0692138671875	1549.777709960938	978.234619140625	399.2318725585938	1552.587036132812	508.8830261230469	414.6134033203125	1543.291259765625	674.3753662109375	373.0349426269531	1431.814575195312	40.582275390625	388.5383911132812	1479.0009765625	260.8831481933594	389.8304138183594	1617.254516601562	39.10247802734375	513.2731323242188	1534.168579101562	47.37639617919922	522.0843505859375	1549.718383789062	36.39078140258789	415.827392578125	1350.384033203125	41.90908050537109	415.3837585449219	1443.454833984375	504.6575317382812	661.9345703125	1410.036376953125	795.8121337890625	699.12548828125	1321.515869140625	40.0743293762207	605.1475219726562	1438.76318359375	358.6122741699219	647.5526733398438	1546.934936523438	40.80921936035156	640.7695922851562	1499.056762695312	43.53452682495117	580.9417114257812	1440.846069335938	41.34235763549805	669.4243774414062	1290.276245117188	27.0968074798584	535.417724609375	1820.297607421875	938.59521484375	367.4161987304688	
318	3.17	1281.308959960938	1011.57421875	529.4345703125	1329.22119140625	1016.248657226562	405.0529479980469	1309.419921875	1108.697631835938	464.92724609375	1525.42236328125	1308.09912109375	521.1640014648438	1293.446411132812	1233.993286132812	458.6455078125	1328.80078125	1510.3642578125	474.6587524414062	1502.58935546875	1418.280029296875	512.5027465820312	1241.939575195312	1385.1337890625	543.88330078125	1317.669189453125	1454.105834960938	380.0088806152344	1430.82421875	1485.474975585938	327.8664245605469	1454.750610351562	1370.096557617188	241.1399536132812	1528.110229492188	1175.721313476562	199.4240264892578	1439.521484375	1126.3515625	215.0502319335938	1706.3583984375	1046.392578125	327.5752258300781	1721.40771484375	1004.520751953125	252.3506622314453	1592.102661132812	1122.28173828125	215.5302581787109	1765.254028320312	970.853759765625	275.2373657226562	1776.460083007812	1009.325256347656	330.3448791503906	1347.948120117188	1483.5478515625	638.2832641601562	1312.696166992188	1424.008911132812	700.2306518554688	1281.977661132812	1148.267211914062	775.7145385742188	1233.9521484375	1127.071899414062	735.8185424804688	1416.55322265625	926.9091186523438	804.1895141601562	1354.218994140625	916.6051025390625	856.7312622070312	1287.74365234375	1094.840698242188	793.1040649414062	1414.578735351562	756.9998779296875	833.1576538085938	1435.513427734375	838.4727172851562	839.780029296875	1368.617309570312	844.54345703125	872.388427734375	1422.939331054688	1697.560180664062	568.0687255859375	1597.507446289062	1693.284545898438	455.0130004882812	1560.3720703125	1691.580810546875	595.308837890625	1471.506958007812	1696.262329101562	410.4284973144531	1497.875366210938	947.7420654296875	327.0633239746094	1359.768310546875	946.308349609375	687.6135864257812	1458.6181640625	984.7424926757812	660.172119140625	1552.636352539062	978.47900390625	400.7401123046875	1552.884033203125	508.9248046875	415.3930053710938	1544.968505859375	674.4976196289062	374.1814880371094	1432.122680664062	40.6053581237793	388.0516052246094	1479.211791992188	261.0203857421875	389.8091430664062	1617.0400390625	39.1668701171875	513.375732421875	1534.074829101562	47.42642211914062	521.9268798828125	1549.899780273438	36.37331390380859	415.7586975097656	1350.59130859375	41.87895584106445	414.5572204589844	1443.00341796875	504.5791625976562	662.06982421875	1410.829956054688	795.910400390625	699.82080078125	1321.50830078125	40.04644012451172	605.1292114257812	1438.342529296875	358.6437072753906	647.541259765625	1546.918823242188	40.80262756347656	640.760498046875	1499.016967773438	43.54005432128906	580.9620361328125	1440.805053710938	41.32841491699219	669.4342041015625	1290.24267578125	27.03836059570312	535.411865234375	1813.375244140625	927.570556640625	362.84619140625	
